<?xml version="1.0" encoding="UTF-8" standalone="no"?>
<svg
   width="100mm"
   height="100mm"
   version="1.1"
   viewBox="0 0 99.990036 99.811471"
   id="svg14"
   sodipodi:docname="cart-shed-red.05Feb2026.svg"
   inkscape:version="1.2.2 (b0a8486541, 2022-12-01)"
   inkscape:export-filename="cart-shed16.png"
   inkscape:export-xdpi="4.0640001"
   inkscape:export-ydpi="4.0640001"
   xmlns:inkscape="http://www.inkscape.org/namespaces/inkscape"
   xmlns:sodipodi="http://sodipodi.sourceforge.net/DTD/sodipodi-0.dtd"
   xmlns="http://www.w3.org/2000/svg"
   xmlns:svg="http://www.w3.org/2000/svg">
  <defs
     id="defs18">
    <rect
       x="-10.522373"
       y="37.619194"
       width="43.362549"
       height="41.879757"
       id="rect13895" />
  </defs>
  <sodipodi:namedview
     id="namedview16"
     pagecolor="#ffffff"
     bordercolor="#666666"
     borderopacity="1.0"
     inkscape:pageshadow="2"
     inkscape:pageopacity="0.0"
     inkscape:pagecheckerboard="0"
     showgrid="false"
     showguides="true"
     inkscape:guide-bbox="true"
     inkscape:zoom="1.2658451"
     inkscape:cx="141.01251"
     inkscape:cy="267.80528"
     inkscape:window-width="1811"
     inkscape:window-height="1073"
     inkscape:window-x="20"
     inkscape:window-y="20"
     inkscape:window-maximized="0"
     inkscape:current-layer="g12"
     width="1255px"
     fit-margin-top="0"
     fit-margin-left="0"
     fit-margin-right="0"
     fit-margin-bottom="0"
     inkscape:showpageshadow="2"
     inkscape:deskcolor="#d1d1d1"
     inkscape:document-units="mm">
    <sodipodi:guide
       position="2.5713064,87.668342"
       orientation="1,0"
       id="guide39474"
       inkscape:locked="false" />
    <sodipodi:guide
       position="36.343079,104.01388"
       orientation="1,0"
       id="guide39476"
       inkscape:locked="false" />
    <sodipodi:guide
       position="-9.3414842,64.198244"
       orientation="0,-1"
       id="guide63640"
       inkscape:locked="false" />
  </sodipodi:namedview>
  <g
     transform="translate(-46.293397,-57.440671)"
     stroke-width="0.265"
     word-spacing="0px"
     id="g12">
    <rect
       style="fill:#940000;fill-opacity:1;stroke:none;stroke-width:0.249975;stroke-linecap:round"
       id="rect1662"
       width="99.990036"
       height="99.990036"
       x="46.137466"
       y="57.303223" />
    <rect
       style="fill:#ffffff;fill-opacity:1;stroke:none;stroke-width:0.251523;stroke-linecap:round"
       id="rect898"
       width="94.990532"
       height="94.990532"
       x="48.793148"
       y="59.851139" />
    <g
       aria-label="CART SHED"
       transform="scale(0.95441031,1.0477674)"
       id="text6"
       style="font-weight:bold;font-size:38.3954px;line-height:0;font-family:'Frutiger 45 Light';letter-spacing:2.68446px;word-spacing:-0.0659307px;fill:#808080;stroke-width:1.40611" />
    <g
       id="g844"
       transform="matrix(0.83713964,0,0,0.83786797,15.687435,17.325807)"
       style="fill:#940000;fill-opacity:1;stroke:#950000;stroke-opacity:1">
      <path
         d="m 73.161252,75.861595 v 4.124506 q -4.124506,2.24973 -9.523859,2.24973 -4.386975,0 -7.442859,-1.762289 -3.055884,-1.762288 -4.836921,-4.855668 -1.781036,-3.093379 -1.781036,-6.692948 0,-5.718065 4.068262,-9.617598 4.087011,-3.899533 10.067545,-3.899533 4.124506,0 9.167651,2.155992 v 4.030767 q -4.593199,-2.624686 -8.980174,-2.624686 -4.499461,0 -7.480354,2.849659 -2.962145,2.830911 -2.962145,7.105399 0,4.311983 2.92465,7.086651 2.924649,2.774668 7.480354,2.774668 4.761929,0 9.298886,-2.92465 z"
         style="font-weight:normal;font-size:38.3954px;line-height:37.3641px;font-family:'Gill Sans';-inkscape-font-specification:'Gill Sans, Normal';letter-spacing:2.68446px;word-spacing:-0.0659307px;fill:#940000;fill-opacity:1;stroke:#950000;stroke-width:1.40611;stroke-opacity:1"
         id="path448"
         transform="matrix(0.95441032,0,0,1.0477674,-9.0878726e-7,-1.2504765e-6)" />
      <path
         d="m 88.146283,55.595272 h 2.643434 l 11.717343,26.340595 h -3.843286 l -3.487083,-7.76157 H 84.040525 l -3.299605,7.76157 h -3.843289 z m 5.493092,15.241925 -4.218244,-9.486364 -3.918281,9.486364 z"
         style="font-weight:normal;font-size:38.3954px;line-height:37.3641px;font-family:'Gill Sans';-inkscape-font-specification:'Gill Sans, Normal';letter-spacing:2.68446px;word-spacing:-0.0659307px;fill:#940000;fill-opacity:1;stroke:#950000;stroke-width:1.40611;stroke-opacity:1"
         id="path450"
         transform="matrix(0.95441032,0,0,1.0477674,-9.0878726e-7,-1.2504765e-6)" />
      <path
         d="M 108.19117,81.935867 V 55.745254 h 6.56171 q 3.97452,0 6.29924,1.968515 2.34347,1.968514 2.34347,5.324362 0,2.287226 -1.14361,3.955776 -1.14361,1.66855 -3.28086,2.493451 1.2561,0.824902 2.45596,2.249731 1.19986,1.424829 3.3746,4.968155 1.36858,2.230983 2.19348,3.355848 l 1.38734,1.874775 h -4.46197 l -1.14361,-1.724793 q -0.0563,-0.09374 -0.22497,-0.318712 l -0.73117,-1.031126 -1.16236,-1.912271 -1.2561,-2.043506 q -1.16236,-1.612306 -2.13724,-2.568442 -0.95614,-0.956135 -1.74354,-1.368586 -0.76866,-0.431198 -2.60594,-0.431198 h -0.97488 v 11.398634 z m 4.87441,-23.003494 h -1.12486 v 8.267759 h 1.42483 q 2.84965,0 3.89953,-0.487441 1.06862,-0.487442 1.6498,-1.462325 0.59993,-0.993631 0.59993,-2.249731 0,-1.237351 -0.65617,-2.230982 -0.65617,-1.012379 -1.85603,-1.42483 -1.18111,-0.41245 -3.93703,-0.41245 z"
         style="font-weight:normal;font-size:38.3954px;line-height:37.3641px;font-family:'Gill Sans';-inkscape-font-specification:'Gill Sans, Normal';letter-spacing:2.68446px;word-spacing:-0.0659307px;fill:#940000;fill-opacity:1;stroke:#950000;stroke-width:1.40611;stroke-opacity:1"
         id="path452"
         transform="matrix(0.95441032,0,0,1.0477674,-9.0878726e-7,-1.2504765e-6)" />
      <path
         d="m 130.67643,55.707759 h 21.87863 v 3.3371 h -9.13016 v 22.891008 h -3.76829 V 59.044859 h -8.98018 z"
         style="font-weight:normal;font-size:38.3954px;line-height:37.3641px;font-family:'Gill Sans';-inkscape-font-specification:'Gill Sans, Normal';letter-spacing:2.68446px;word-spacing:-0.0659307px;fill:#940000;fill-opacity:1;stroke:#950000;stroke-width:1.40611;stroke-opacity:1"
         id="path454"
         transform="matrix(0.95441032,0,0,1.0477674,-9.0878726e-7,-1.2504765e-6)" />
      <path
         d="m 57.075678,109.62973 -2.849658,-1.72479 q -2.680929,-1.63105 -3.824542,-3.20587 -1.124865,-1.59356 -1.124865,-3.65581 0,-3.093378 2.137244,-5.024396 2.155991,-1.931019 5.58683,-1.931019 3.280857,0 6.01803,1.83728 v 4.255745 q -2.830911,-2.718429 -6.093021,-2.718429 -1.837279,0 -3.018388,0.862396 -1.181109,0.843649 -1.181109,2.174743 0,1.18111 0.862397,2.21223 0.862397,1.03113 2.793416,2.15599 l 2.868406,1.6873 q 4.799425,2.84966 4.799425,7.27413 0,3.14962 -2.118496,5.11814 -2.099749,1.96851 -5.474344,1.96851 -3.880786,0 -7.067904,-2.38096 v -4.76193 q 3.037136,3.84329 7.030408,3.84329 1.762289,0 2.92465,-0.97489 1.181108,-0.99363 1.181108,-2.4747 0,-2.39971 -3.449587,-4.53696 z"
         style="font-weight:normal;font-size:38.3954px;line-height:39.996px;font-family:'Gill Sans';-inkscape-font-specification:'Gill Sans, Normal';letter-spacing:4.27655px;word-spacing:-0.0659307px;fill:#940000;fill-opacity:1;stroke:#950000;stroke-width:1.40611;stroke-opacity:1"
         id="path456"
         transform="matrix(0.95441032,0,0,1.0477674,-9.0878726e-7,-1.2504765e-6)" />
      <path
         d="m 90.917438,94.425305 h 3.749551 V 120.61592 H 90.917438 V 109.21728 H 76.200451 v 11.39864 H 72.4509 V 94.425305 h 3.749551 v 11.323645 h 14.716987 z"
         style="font-weight:normal;font-size:38.3954px;line-height:39.996px;font-family:'Gill Sans';-inkscape-font-specification:'Gill Sans, Normal';letter-spacing:4.27655px;word-spacing:-0.0659307px;fill:#940000;fill-opacity:1;stroke:#950000;stroke-width:1.40611;stroke-opacity:1"
         id="path458"
         transform="matrix(0.95441032,0,0,1.0477674,-9.0878726e-7,-1.2504765e-6)" />
      <path
         d="m 104.71785,94.425305 h 14.84822 v 3.3371 H 108.4674 v 7.986545 h 10.72371 v 3.35585 H 108.4674 v 8.13652 h 11.45488 v 3.3371 h -15.20443 z"
         style="font-weight:normal;font-size:38.3954px;line-height:39.996px;font-family:'Gill Sans';-inkscape-font-specification:'Gill Sans, Normal';letter-spacing:4.27655px;word-spacing:-0.0659307px;fill:#940000;fill-opacity:1;stroke:#950000;stroke-width:1.40611;stroke-opacity:1"
         id="path460"
         transform="matrix(0.95441032,0,0,1.0477674,-9.0878726e-7,-1.2504765e-6)" />
      <path
         d="M 128.22959,120.57842 V 94.425305 h 8.8302 q 5.34311,0 8.45523,1.612306 3.11213,1.59356 4.94941,4.705689 1.83728,3.11213 1.83728,6.78668 0,2.62469 -1.01238,5.0244 -1.01238,2.39972 -2.88715,4.21825 -1.91227,1.87477 -4.44322,2.83091 -1.48107,0.58118 -2.71843,0.7874 -1.23735,0.18748 -4.72443,0.18748 z m 8.43649,-22.816015 h -4.68694 v 19.478915 h 4.79943 q 2.81216,0 4.36823,-0.37495 1.55606,-0.39371 2.58719,-0.97489 1.04987,-0.59992 1.91227,-1.46232 2.77466,-2.81216 2.77466,-7.1054 0,-4.21825 -2.84965,-6.88043 -1.04988,-0.993627 -2.41846,-1.631051 -1.34984,-0.637424 -2.56845,-0.843649 -1.2186,-0.206225 -3.91828,-0.206225 z"
         style="font-weight:normal;font-size:38.3954px;line-height:39.996px;font-family:'Gill Sans';-inkscape-font-specification:'Gill Sans, Normal';letter-spacing:4.27655px;word-spacing:-0.0659307px;fill:#940000;fill-opacity:1;stroke:#950000;stroke-width:1.40611;stroke-opacity:1"
         id="path462"
         transform="matrix(0.95441032,0,0,1.0477674,-9.0878726e-7,-1.2504765e-6)" />
      <g
         aria-label="RESEARCH"
         transform="scale(0.90023959,1.1108154)"
         id="text10"
         style="font-size:23.3532px;line-height:1.25;font-family:'Gill Sans';letter-spacing:0px;fill:#940000;fill-opacity:1;stroke:#950000;stroke-width:0.583829;stroke-opacity:1">
        <path
           d="m 51.517791,141.35919 v -16.38071 h 4.103972 q 2.485834,0 3.939813,1.23119 1.465704,1.23119 1.465704,3.33008 0,1.43053 -0.715263,2.47411 -0.715264,1.04358 -2.051986,1.55951 0.785617,0.51593 1.536058,1.40708 0.75044,0.89115 2.110614,3.10729 0.855971,1.39535 1.371899,2.09889 l 0.867697,1.17256 h -2.790701 l -0.715264,-1.07876 q -0.03518,-0.0586 -0.140707,-0.19933 l -0.4573,-0.64491 -0.726989,-1.19602 -0.785618,-1.27809 q -0.726989,-1.00841 -1.336722,-1.60641 -0.598008,-0.59801 -1.090484,-0.85597 -0.480751,-0.26969 -1.629863,-0.26969 h -0.609733 v 7.12918 z m 3.048665,-14.38735 h -0.703538 v 5.171 h 0.891148 q 1.782296,0 2.438932,-0.30486 0.668361,-0.30487 1.031856,-0.9146 0.37522,-0.62146 0.37522,-1.40708 0,-0.77389 -0.410397,-1.39535 -0.410397,-0.63318 -1.160838,-0.89115 -0.738715,-0.25796 -2.462383,-0.25796 z"
           style="font-size:24.0141px;-inkscape-font-specification:'Gill Sans, Normal';text-align:center;text-anchor:middle;fill:#940000;fill-opacity:1;stroke:#950000;stroke-opacity:1"
           id="path465" />
        <path
           d="m 65.952047,124.97848 h 9.286702 v 2.08716 h -6.941575 v 4.99512 h 6.707063 v 2.09889 h -6.707063 v 5.08893 h 7.164363 v 2.08716 h -9.50949 z"
           style="font-size:24.0141px;-inkscape-font-specification:'Gill Sans, Normal';text-align:center;text-anchor:middle;fill:#940000;fill-opacity:1;stroke:#950000;stroke-opacity:1"
           id="path467" />
        <path
           d="m 82.016166,134.48797 -1.782296,-1.07876 q -1.676766,-1.02013 -2.39203,-2.00508 -0.703538,-0.99668 -0.703538,-2.2865 0,-1.93473 1.336723,-3.14247 1.348447,-1.20774 3.494239,-1.20774 2.051986,0 3.763928,1.14911 v 2.66172 q -1.770571,-1.70022 -3.810831,-1.70022 -1.149112,0 -1.887827,0.53938 -0.738715,0.52766 -0.738715,1.36018 0,0.73871 0.539379,1.38362 0.539379,0.64491 1.74712,1.34845 l 1.794022,1.05531 q 3.001762,1.78229 3.001762,4.54954 0,1.96991 -1.324997,3.2011 -1.313271,1.23119 -3.423885,1.23119 -2.427206,0 -4.420564,-1.48915 v -2.97831 q 1.899553,2.40375 4.397113,2.40375 1.10221,0 1.829199,-0.60973 0.738715,-0.62146 0.738715,-1.54779 0,-1.50088 -2.157517,-2.8376 z"
           style="font-size:24.0141px;-inkscape-font-specification:'Gill Sans, Normal';text-align:center;text-anchor:middle;fill:#940000;fill-opacity:1;stroke:#950000;stroke-opacity:1"
           id="path469" />
        <path
           d="m 88.957741,124.97848 h 9.286702 v 2.08716 h -6.941576 v 4.99512 h 6.707063 v 2.09889 h -6.707063 v 5.08893 h 7.164363 v 2.08716 h -9.509489 z"
           style="font-size:24.0141px;-inkscape-font-specification:'Gill Sans, Normal';text-align:center;text-anchor:middle;fill:#940000;fill-opacity:1;stroke:#950000;stroke-opacity:1"
           id="path471" />
        <path
           d="m 106.19442,124.88468 h 1.65332 l 7.32852,16.47451 h -2.40376 l -2.18096,-4.85441 h -6.96503 l -2.06371,4.85441 h -2.403758 z m 3.43561,9.53294 -2.63826,-5.93317 -2.45066,5.93317 z"
           style="font-size:24.0141px;-inkscape-font-specification:'Gill Sans, Normal';text-align:center;text-anchor:middle;fill:#940000;fill-opacity:1;stroke:#950000;stroke-opacity:1"
           id="path473" />
        <path
           d="m 117.05236,141.35919 v -16.38071 h 4.10397 q 2.48584,0 3.93981,1.23119 1.46571,1.23119 1.46571,3.33008 0,1.43053 -0.71526,2.47411 -0.71527,1.04358 -2.05199,1.55951 0.78562,0.51593 1.53606,1.40708 0.75044,0.89115 2.11061,3.10729 0.85597,1.39535 1.3719,2.09889 l 0.8677,1.17256 h -2.7907 l -0.71527,-1.07876 q -0.0352,-0.0586 -0.1407,-0.19933 l -0.4573,-0.64491 -0.72699,-1.19602 -0.78562,-1.27809 q -0.72699,-1.00841 -1.33672,-1.60641 -0.59801,-0.59801 -1.09049,-0.85597 -0.48075,-0.26969 -1.62986,-0.26969 h -0.60973 v 7.12918 z m 3.04866,-14.38735 h -0.70353 v 5.171 h 0.89114 q 1.7823,0 2.43894,-0.30486 0.66836,-0.30487 1.03185,-0.9146 0.37522,-0.62146 0.37522,-1.40708 0,-0.77389 -0.41039,-1.39535 -0.4104,-0.63318 -1.16084,-0.89115 -0.73872,-0.25796 -2.46239,-0.25796 z"
           style="font-size:24.0141px;-inkscape-font-specification:'Gill Sans, Normal';text-align:center;text-anchor:middle;fill:#940000;fill-opacity:1;stroke:#950000;stroke-opacity:1"
           id="path475" />
        <path
           d="m 145.60428,137.56009 v 2.57964 q -2.57964,1.40707 -5.95662,1.40707 -2.7438,0 -4.65508,-1.10221 -1.91128,-1.10221 -3.02522,-3.03694 -1.11393,-1.93473 -1.11393,-4.18605 0,-3.57632 2.54446,-6.01525 2.55619,-2.43893 6.29667,-2.43893 2.57964,0 5.73383,1.34845 v 2.52101 q -2.87278,-1.64159 -5.61658,-1.64159 -2.81415,0 -4.67852,1.7823 -1.85265,1.77057 -1.85265,4.44401 0,2.6969 1.82919,4.43229 1.8292,1.7354 4.67853,1.7354 2.97831,0 5.81592,-1.8292 z"
           style="font-size:24.0141px;-inkscape-font-specification:'Gill Sans, Normal';text-align:center;text-anchor:middle;fill:#940000;fill-opacity:1;stroke:#950000;stroke-opacity:1"
           id="path477" />
        <path
           d="m 160.03854,124.97848 h 2.34513 v 16.38071 h -2.34513 v -7.12918 h -9.20462 v 7.12918 h -2.34513 v -16.38071 h 2.34513 v 7.08228 h 9.20462 z"
           style="font-size:24.0141px;-inkscape-font-specification:'Gill Sans, Normal';text-align:center;text-anchor:middle;fill:#940000;fill-opacity:1;stroke:#950000;stroke-opacity:1"
           id="path479" />
      </g>
    </g>
    <text
       xml:space="preserve"
       transform="matrix(0.26455696,0,0,0.26455696,46.2,56.666456)"
       id="text13893"
       style="font-style:normal;font-weight:normal;font-size:40px;line-height:1.25;font-family:sans-serif;letter-spacing:0px;word-spacing:0px;white-space:pre;shape-inside:url(#rect13895);display:inline;fill:#000000;fill-opacity:1;stroke:none" />
  </g>
</svg>
